<svg xmlns="http://www.w3.org/2000/svg" viewBox="0 0 512 512" width="512" height="512">
  <defs>
    <linearGradient id="bg" x1="0" y1="0" x2="1" y2="1">
      <stop offset="0%" stop-color="#7c3aed"/>
      <stop offset="100%" stop-color="#4f46e5"/>
    </linearGradient>
  </defs>
  <rect x="96" y="48" width="320" height="416" rx="40" fill="url(#bg)"/>
  <rect x="128" y="80" width="256" height="80" rx="12" fill="white" opacity="0.95"/>
  <text x="256" y="140" text-anchor="middle" font-family="system-ui, sans-serif" font-size="56" font-weight="bold" fill="#1e1b4b">1ü</text>
  <rect x="128" y="192" width="72" height="60" rx="10" fill="white" opacity="0.2"/>
  <rect x="220" y="192" width="72" height="60" rx="10" fill="white" opacity="0.2"/>
  <rect x="312" y="192" width="72" height="60" rx="10" fill="white" opacity="0.2"/>
  <rect x="128" y="272" width="72" height="60" rx="10" fill="white" opacity="0.2"/>
  <rect x="220" y="272" width="72" height="60" rx="10" fill="white" opacity="0.2"/>
  <rect x="312" y="272" width="72" height="60" rx="10" fill="white" opacity="0.2"/>
  <rect x="128" y="352" width="72" height="60" rx="10" fill="white" opacity="0.2"/>
  <rect x="220" y="352" width="72" height="60" rx="10" fill="white" opacity="0.2"/>
  <rect x="312" y="352" width="72" height="60" rx="16" fill="#f59e0b"/>
</svg>
