<svg xmlns="http://www.w3.org/2000/svg" viewBox="0 0 400 620" width="400" height="620">
  <defs>
    <linearGradient id="bg" x1="0" y1="0" x2="1" y2="1">
      <stop offset="0%" stop-color="#6d28d9"/>
      <stop offset="100%" stop-color="#4338ca"/>
    </linearGradient>
    <linearGradient id="opBtn" x1="0" y1="0" x2="1" y2="1">
      <stop offset="0%" stop-color="#f59e0b"/>
      <stop offset="100%" stop-color="#d97706"/>
    </linearGradient>
  </defs>
  <rect x="40" y="20" width="320" height="580" rx="32" fill="url(#bg)"/>
  <rect x="60" y="44" width="280" height="80" rx="12" fill="#f8fafc"/>
  <text x="320" y="98" text-anchor="end" font-family="system-ui, monospace" font-size="48" font-weight="bold" fill="#1e1b4b">10</text>
  <rect x="60" y="144" width="64" height="48" rx="10" fill="white" opacity="0.85"/>
  <text x="92" y="176" text-anchor="middle" font-family="system-ui, sans-serif" font-size="20" font-weight="bold" fill="#dc2626">C</text>
  <rect x="136" y="144" width="64" height="48" rx="10" fill="url(#opBtn)"/>
  <text x="168" y="176" text-anchor="middle" font-family="system-ui, sans-serif" font-size="22" font-weight="bold" fill="#1e1b4b">÷</text>
  <rect x="212" y="144" width="64" height="48" rx="10" fill="url(#opBtn)"/>
  <text x="244" y="176" text-anchor="middle" font-family="system-ui, sans-serif" font-size="22" font-weight="bold" fill="#1e1b4b">×</text>
  <rect x="288" y="144" width="64" height="48" rx="10" fill="url(#opBtn)"/>
  <text x="320" y="176" text-anchor="middle" font-family="system-ui, sans-serif" font-size="22" font-weight="bold" fill="#1e1b4b">−</text>
  <rect x="60" y="202" width="64" height="48" rx="10" fill="white" opacity="0.85"/>
  <text x="92" y="234" text-anchor="middle" font-family="system-ui, sans-serif" font-size="22" font-weight="bold" fill="#1e1b4b">7</text>
  <rect x="136" y="202" width="64" height="48" rx="10" fill="white" opacity="0.85"/>
  <text x="168" y="234" text-anchor="middle" font-family="system-ui, sans-serif" font-size="22" font-weight="bold" fill="#1e1b4b">8</text>
  <rect x="212" y="202" width="64" height="48" rx="10" fill="white" opacity="0.85"/>
  <text x="244" y="234" text-anchor="middle" font-family="system-ui, sans-serif" font-size="22" font-weight="bold" fill="#1e1b4b">9</text>
  <rect x="288" y="202" width="64" height="48" rx="10" fill="url(#opBtn)"/>
  <text x="320" y="234" text-anchor="middle" font-family="system-ui, sans-serif" font-size="22" font-weight="bold" fill="#1e1b4b">+</text>
  <rect x="60" y="260" width="64" height="48" rx="10" fill="white" opacity="0.85"/>
  <text x="92" y="292" text-anchor="middle" font-family="system-ui, sans-serif" font-size="22" font-weight="bold" fill="#1e1b4b">4</text>
  <rect x="136" y="260" width="64" height="48" rx="10" fill="white" opacity="0.85"/>
  <text x="168" y="292" text-anchor="middle" font-family="system-ui, sans-serif" font-size="22" font-weight="bold" fill="#1e1b4b">5</text>
  <rect x="212" y="260" width="64" height="48" rx="10" fill="white" opacity="0.85"/>
  <text x="244" y="292" text-anchor="middle" font-family="system-ui, sans-serif" font-size="22" font-weight="bold" fill="#1e1b4b">6</text>
  <rect x="288" y="260" width="64" height="48" rx="10" fill="url(#opBtn)"/>
  <text x="320" y="292" text-anchor="middle" font-family="system-ui, sans-serif" font-size="30" font-weight="bold" fill="#1e1b4b">=</text>
  <rect x="60" y="318" width="64" height="48" rx="10" fill="white" opacity="0.85"/>
  <text x="92" y="350" text-anchor="middle" font-family="system-ui, sans-serif" font-size="22" font-weight="bold" fill="#1e1b4b">1</text>
  <rect x="136" y="318" width="64" height="48" rx="10" fill="white" opacity="0.85"/>
  <text x="168" y="350" text-anchor="middle" font-family="system-ui, sans-serif" font-size="22" font-weight="bold" fill="#1e1b4b">2</text>
  <rect x="212" y="318" width="64" height="48" rx="10" fill="white" opacity="0.85"/>
  <text x="244" y="350" text-anchor="middle" font-family="system-ui, sans-serif" font-size="22" font-weight="bold" fill="#1e1b4b">3</text>
  <rect x="60" y="376" width="140" height="48" rx="10" fill="white" opacity="0.85"/>
  <text x="130" y="408" text-anchor="middle" font-family="system-ui, sans-serif" font-size="22" font-weight="bold" fill="#1e1b4b">0</text>
  <rect x="212" y="376" width="64" height="48" rx="10" fill="white" opacity="0.85"/>
  <text x="244" y="408" text-anchor="middle" font-family="system-ui, sans-serif" font-size="26" font-weight="bold" fill="#1e1b4b">.</text>
</svg>
