<svg xmlns="http://www.w3.org/2000/svg" viewBox="0 0 512 512" width="512" height="512">
  <defs>
    <linearGradient id="bg" x1="0" y1="0" x2="1" y2="1">
      <stop offset="0%" stop-color="#7c3aed"/>
      <stop offset="100%" stop-color="#4f46e5"/>
    </linearGradient>
  </defs>
  <rect x="106" y="40" width="300" height="432" rx="40" fill="url(#bg)"/>
  <rect x="136" y="68" width="240" height="72" rx="12" fill="#f8fafc"/>
  <text x="256" y="118" text-anchor="middle" font-family="system-ui, monospace" font-size="56" font-weight="bold" fill="#1e1b4b">10</text>
  <rect x="136" y="164" width="70" height="54" rx="10" fill="white" opacity="0.85"/>
  <text x="171" y="200" text-anchor="middle" font-family="system-ui, sans-serif" font-size="24" font-weight="bold" fill="#4f46e5">1</text>
  <rect x="221" y="164" width="70" height="54" rx="10" fill="white" opacity="0.85"/>
  <text x="256" y="200" text-anchor="middle" font-family="system-ui, sans-serif" font-size="24" font-weight="bold" fill="#4f46e5">2</text>
  <rect x="306" y="164" width="70" height="54" rx="10" fill="white" opacity="0.85"/>
  <text x="341" y="200" text-anchor="middle" font-family="system-ui, sans-serif" font-size="24" font-weight="bold" fill="#4f46e5">3</text>
  <rect x="136" y="228" width="70" height="54" rx="10" fill="white" opacity="0.85"/>
  <text x="171" y="264" text-anchor="middle" font-family="system-ui, sans-serif" font-size="24" font-weight="bold" fill="#4f46e5">4</text>
  <rect x="221" y="228" width="70" height="54" rx="10" fill="white" opacity="0.85"/>
  <text x="256" y="264" text-anchor="middle" font-family="system-ui, sans-serif" font-size="24" font-weight="bold" fill="#4f46e5">5</text>
  <rect x="306" y="228" width="70" height="54" rx="10" fill="white" opacity="0.85"/>
  <text x="341" y="264" text-anchor="middle" font-family="system-ui, sans-serif" font-size="24" font-weight="bold" fill="#4f46e5">6</text>
  <rect x="136" y="292" width="70" height="54" rx="10" fill="white" opacity="0.85"/>
  <text x="171" y="328" text-anchor="middle" font-family="system-ui, sans-serif" font-size="24" font-weight="bold" fill="#4f46e5">7</text>
  <rect x="221" y="292" width="70" height="54" rx="10" fill="white" opacity="0.85"/>
  <text x="256" y="328" text-anchor="middle" font-family="system-ui, sans-serif" font-size="24" font-weight="bold" fill="#4f46e5">8</text>
  <rect x="306" y="292" width="70" height="54" rx="10" fill="white" opacity="0.85"/>
  <text x="341" y="328" text-anchor="middle" font-family="system-ui, sans-serif" font-size="24" font-weight="bold" fill="#4f46e5">9</text>
  <rect x="136" y="356" width="70" height="54" rx="10" fill="white" opacity="0.85"/>
  <text x="171" y="392" text-anchor="middle" font-family="system-ui, sans-serif" font-size="24" font-weight="bold" fill="#4f46e5">.</text>
  <rect x="221" y="356" width="70" height="54" rx="10" fill="white" opacity="0.85"/>
  <text x="256" y="392" text-anchor="middle" font-family="system-ui, sans-serif" font-size="24" font-weight="bold" fill="#4f46e5">0</text>
  <rect x="306" y="356" width="70" height="54" rx="16" fill="#f59e0b"/>
  <text x="341" y="392" text-anchor="middle" font-family="system-ui, sans-serif" font-size="28" font-weight="bold" fill="#1e1b4b">=</text>
</svg>
